<svg xmlns="http://www.w3.org/2000/svg" viewBox="0 0 384.97 384.97" xml:space="preserve"><path d="M192.485 0C86.185 0 0 86.173 0 192.485c0 106.3 86.185 192.485 192.485 192.485 106.312 0 192.485-86.185 192.485-192.485C384.97 86.173 298.797 0 192.485 0zm0 360.909c-93.018 0-168.424-75.406-168.424-168.424S99.467 24.061 192.485 24.061s168.424 75.406 168.424 168.424-75.406 168.424-168.424 168.424z"/><path d="m268.095 209.243-63.46 62.558V84.212c0-6.641-5.438-12.03-12.151-12.03s-12.151 5.39-12.151 12.03v187.589l-63.46-62.558c-4.74-4.692-12.439-4.692-17.179 0-4.74 4.704-4.74 12.319 0 17.011l84.2 82.997c2.25 2.25 5.414 3.537 8.59 3.537 3.164 0 6.328-1.299 8.59-3.525l84.2-82.997a11.942 11.942 0 0 0 0-17.011c-4.739-4.704-12.439-4.704-17.179-.012z"/></svg>